<?xml version="1.0" encoding="iso-8859-1"?>
<!-- Generator: Adobe Illustrator 19.0.0, SVG Export Plug-In . SVG Version: 6.00 Build 0)  -->
<svg version="1.1" id="Capa_1" xmlns="http://www.w3.org/2000/svg" xmlns:xlink="http://www.w3.org/1999/xlink" x="0px" y="0px"
	 viewBox="0 0 512 512" style="enable-background:new 0 0 512 512;" xml:space="preserve">
<g>
	<g>
		<g>
			<path d="M494.345,141.241H264.828v79.448h8.828c4.875,0,8.828,3.952,8.828,8.828c0,4.875-3.952,8.828-8.828,8.828h-35.31
				c-4.875,0-8.828-3.952-8.828-8.828c0-4.875,3.952-8.828,8.828-8.828h8.828v-79.448H17.655c-4.875,0-8.828,3.952-8.828,8.828
				v353.103c0,4.875,3.952,8.828,8.828,8.828h476.69c4.875,0,8.828-3.952,8.828-8.828V150.069
				C503.172,145.194,499.22,141.241,494.345,141.241z M165.341,359.106L41.755,491.52c-1.585,1.721-3.793,2.736-6.131,2.819
				c-2.338,0.083-4.613-0.773-6.316-2.378c-1.73-1.58-2.751-3.789-2.834-6.131s0.779-4.618,2.393-6.316l123.586-132.414
				c3.388-3.171,8.653-3.177,12.049-0.014C167.897,350.25,168.263,355.502,165.341,359.106z M256,353.81
				c-8.292,0.012-16.323-2.894-22.687-8.21L29.661,174.521c-2.868-2.376-3.936-6.297-2.669-9.799
				c1.266-3.502,4.595-5.833,8.319-5.826c2.059,0.014,4.052,0.73,5.65,2.03l203.652,171.079c6.577,5.551,16.198,5.551,22.775,0
				L471.04,160.927c3.767-3.077,9.306-2.566,12.447,1.148c1.3,1.597,2.016,3.59,2.03,5.65c0.004,2.626-1.16,5.117-3.178,6.797
				L278.687,345.6C272.323,350.915,264.292,353.822,256,353.81z M482.692,491.961c-1.703,1.605-3.977,2.461-6.316,2.378
				s-4.546-1.098-6.131-2.819L346.659,359.106c-2.408-2.254-3.359-5.662-2.466-8.837c0.894-3.175,3.483-5.587,6.714-6.254
				c3.23-0.667,6.563,0.523,8.641,3.086l123.586,132.414c1.614,1.699,2.476,3.975,2.393,6.316S484.422,490.381,482.692,491.961z"/>
			<path d="M264.828,105.931h132.414c3.573,0.014,6.793-2.156,8.121-5.473c1.382-3.287,0.651-7.084-1.854-9.622l-37.959-37.87
				l37.959-37.87c2.505-2.538,3.236-6.335,1.854-9.622c-1.329-3.317-4.548-5.487-8.121-5.473H256c-4.875,0-8.828,3.952-8.828,8.828
				v132.414h17.655V105.931z"/>
		</g>
	</g>
</g>
<g>
</g>
<g>
</g>
<g>
</g>
<g>
</g>
<g>
</g>
<g>
</g>
<g>
</g>
<g>
</g>
<g>
</g>
<g>
</g>
<g>
</g>
<g>
</g>
<g>
</g>
<g>
</g>
<g>
</g>
</svg>
